<svg width="51" height="37" viewBox="0 0 51 37" fill="none" xmlns="http://www.w3.org/2000/svg">
<path fill-rule="evenodd" clip-rule="evenodd" d="M4.27621 0.419105C2.73425 0.930578 1.53738 2.00902 0.873353 3.48561L0.450806 4.42531V18.4667V32.5081L0.873353 33.4478C1.39871 34.6158 2.41244 35.6663 3.55894 36.2308L4.4356 36.6624H25.555H46.6744L47.5757 36.2218C48.6961 35.6741 49.7038 34.6173 50.2452 33.422L50.6592 32.5081V18.4667V4.42531L50.2371 3.48678C49.6996 2.29168 48.721 1.27139 47.5746 0.711067L46.6744 0.271048L25.7941 0.239309C9.26516 0.214217 4.78084 0.251772 4.27621 0.419105ZM48.5074 10.989V13.8139H25.555H2.60259V10.989V8.16414H25.555H48.5074V10.989ZM25.555 18.4667V19.6299H16.7885H8.02191V18.4667V17.3035H16.7885H25.555V18.4667Z" fill="#FF9A03"/>
</svg>
