<svg width="52" height="55" viewBox="0 0 52 55" fill="none" xmlns="http://www.w3.org/2000/svg">
<path fill-rule="evenodd" clip-rule="evenodd" d="M23.5131 0.720622C22.9227 0.843692 21.7352 1.28296 20.8742 1.69699C19.5977 2.3109 19.0636 2.68975 17.9798 3.75016C15.7313 5.95017 14.7934 8.15323 14.639 11.5976L14.5471 13.6461H10.1191H5.69099L5.60032 14.1683C5.50321 14.7282 0.886353 54.1851 0.886353 54.455C0.886353 54.562 9.30797 54.6161 25.9905 54.6161C42.1911 54.6161 51.0947 54.5606 51.0947 54.4595C51.0947 54.1949 46.4763 14.7251 46.3802 14.1683L46.29 13.6461H42.9944H39.6987V16.9319C39.6987 18.7391 39.6209 20.5702 39.5259 21.0013C39.1927 22.5133 37.8096 23.6075 36.2317 23.6075C35.1299 23.6075 34.4643 23.3183 33.7206 22.5165C32.4603 21.1578 32.512 19.3437 33.8478 18.0442C34.9659 16.9565 35.0742 17.0418 35.0742 19.0106C35.0742 20.3935 35.1264 20.7426 35.3788 21.0458C35.7993 21.5509 36.6679 21.543 37.0946 21.0304C37.3969 20.6672 37.4091 20.3835 37.3505 15.099C37.2897 9.64277 37.2816 9.52838 36.8641 8.31727C34.9205 2.68028 29.3422 -0.493698 23.5131 0.720622ZM29.0459 3.18927C31.8419 4.16018 34.1361 6.6616 34.8204 9.48532C34.9573 10.0505 35.0705 11.2181 35.0718 12.0796L35.0742 13.6461H27.1466H19.219L19.218 17.1406C19.2175 19.1083 19.1405 20.9033 19.0419 21.249C18.8284 21.9969 17.8407 23.0969 17.1185 23.391C16.8262 23.5101 16.2101 23.6075 15.7493 23.6075C13.0875 23.6075 11.5206 20.7853 12.9411 18.5493C13.2787 18.018 14.1329 17.3437 14.4707 17.3421C14.5387 17.3418 14.5945 18.0926 14.5945 19.0106C14.5945 20.3935 14.6467 20.7426 14.8991 21.0458C15.3132 21.5432 16.1882 21.5432 16.6022 21.0458C16.8836 20.7076 16.9069 20.2951 16.9092 15.5964C16.9119 10.0166 17.0031 9.26488 17.8822 7.57049C19.0533 5.3136 21.1471 3.66468 23.745 2.95293C24.9685 2.61778 27.7584 2.74213 29.0459 3.18927Z" fill="#FF9A03"/>
</svg>
