<svg width="22" height="21" viewBox="0 0 22 21" fill="none" xmlns="http://www.w3.org/2000/svg">
<path fill-rule="evenodd" clip-rule="evenodd" d="M13.5755 0.102006C12.6121 0.307482 11.7438 0.986487 11.3056 1.87698C10.8248 2.85418 10.8887 4.11129 11.4655 5.02561C11.5661 5.185 11.6484 5.33404 11.6484 5.35678C11.6484 5.37953 10.259 6.76022 8.56075 8.42497L5.47309 11.4518L5.01644 11.2103C2.90154 10.0919 0.377924 11.3029 0.0364053 13.6001C-0.233373 15.4149 1.02512 17.0917 2.853 17.3529L3.3418 17.4227L3.41299 17.902C3.74236 20.1173 6.18755 21.3484 8.26428 20.3447C10.001 19.5053 10.6413 17.3132 9.622 15.6976C9.52142 15.5382 9.43913 15.3892 9.43913 15.3665C9.43913 15.3437 10.8337 13.958 12.5382 12.2871C15.2806 9.59868 15.6497 9.25764 15.7447 9.32353C16.8918 10.1185 18.4523 10.1334 19.6386 9.36071C20.6803 8.68219 21.2397 7.40751 21.0514 6.14126C20.839 4.71268 19.6836 3.57332 18.2412 3.37025L17.7457 3.30052L17.6745 2.82127C17.3929 0.92704 15.5231 -0.313459 13.5755 0.102006Z" fill="#F65150"/>
</svg>
