<svg width="59" height="42" viewBox="0 0 59 42" fill="none" xmlns="http://www.w3.org/2000/svg">
<path fill-rule="evenodd" clip-rule="evenodd" d="M0.25 2.54135V4.81954H10.745H21.2399V5.87621V6.93288H10.745H0.25V8.07084V9.2088H8.9676H17.6852V10.3468V11.4847H8.9676H0.25V12.6227V13.7606H7.27486H14.2997V14.8173V15.874H7.27486H0.25V17.0119V18.1499H5.49749H10.745V19.2878V20.4258H5.49749H0.25V26.8965V33.3671L0.67877 34.1936C0.946392 34.7093 1.37025 35.1948 1.8063 35.4853C2.50185 35.9486 2.5181 35.9509 5.49308 36.0013L8.4811 36.0519L8.77073 36.9549C9.3576 38.7856 10.6487 40.1874 12.4958 40.9995C16.333 42.6866 20.7592 40.7796 22.0362 36.8889L22.3174 36.032H29.3136H36.31L36.2654 19.2205L36.2207 2.40902L35.7128 1.71861C35.4335 1.33886 34.9003 0.875383 34.5279 0.688596C33.8562 0.351761 33.7171 0.348672 17.0504 0.30608L0.25 0.263V2.54135ZM38.6751 22.0514V36.032L39.3099 36.0322C39.9366 36.0325 39.9484 36.0446 40.2313 36.967C41.6486 41.589 47.845 43.1558 51.5487 39.8286C52.5288 38.9483 53.0783 38.1187 53.4866 36.9031L53.7674 36.0673L54.9153 36.0051C56.282 35.9308 57.1986 35.4354 57.9285 34.3765L58.3955 33.6991L58.4436 27.4733L58.4917 21.2476L58.0516 19.9831C57.4918 18.3747 56.7129 17.1963 53.6178 13.2729C51.7221 10.8702 50.8603 9.91742 50.0569 9.33657C48.427 8.15765 47.94 8.07084 42.9608 8.07084H38.6751V22.0514ZM47.7067 10.5703C48.7048 10.9707 49.5268 11.8358 52.3604 15.4676C54.9681 18.8097 55.7545 20.0192 56.0335 21.1167L56.1471 21.5637H50.806H45.465L44.9901 21.1716L44.5151 20.7794L44.466 15.5631L44.4169 10.3468H45.7833C46.5597 10.3468 47.3902 10.4433 47.7067 10.5703ZM17.2656 30.8882C19.4751 31.8762 20.4904 34.0229 19.8106 36.2687C19.2787 38.0257 17.3072 39.4459 15.4 39.4459C13.832 39.4459 11.9534 38.3262 11.2269 36.9588C10.7946 36.1447 10.6444 34.7107 10.8977 33.8119C11.6365 31.1897 14.7466 29.7616 17.2656 30.8882ZM48.9277 30.955C50.8581 31.9055 51.8935 34.1302 51.3072 36.0673C50.3261 39.3089 46.3173 40.4792 43.7994 38.2592C42.3387 36.9713 41.8661 35.1643 42.5132 33.3406C42.8616 32.3586 44.1183 31.1296 45.1449 30.7667C46.1423 30.4143 48.0192 30.5078 48.9277 30.955Z" fill="#FF9A03"/>
</svg>
