<svg width="137" height="26" viewBox="0 0 137 26" fill="none" xmlns="http://www.w3.org/2000/svg">
<path d="M17.5986 8.94399C17.5986 10.2382 17.2874 11.4515 16.6651 12.584C16.0658 13.7164 15.1092 14.6293 13.7954 15.3227C12.5046 16.016 10.868 16.3627 8.88575 16.3627H4.84049V25.6533H0V1.45599H8.88575C10.7528 1.45599 12.3432 1.77955 13.6571 2.42666C14.9709 3.07377 15.9506 3.96355 16.5959 5.09599C17.2644 6.22844 17.5986 7.51111 17.5986 8.94399ZM8.6783 12.4453C10.0152 12.4453 11.0063 12.1449 11.6517 11.544C12.2971 10.92 12.6198 10.0533 12.6198 8.94399C12.6198 6.58666 11.306 5.40799 8.6783 5.40799H4.84049V12.4453H8.6783ZM38.8414 15.6347C38.8414 16.328 38.7953 16.952 38.7031 17.5067H24.7003C24.8155 18.8933 25.2996 19.9795 26.1524 20.7653C27.0053 21.5511 28.054 21.944 29.2987 21.944C31.0966 21.944 32.3759 21.1698 33.1366 19.6213H38.3574C37.8042 21.4702 36.7439 22.9955 35.1765 24.1973C33.6091 25.376 31.6844 25.9653 29.4025 25.9653C27.5585 25.9653 25.8989 25.5609 24.4237 24.752C22.9715 23.92 21.8306 22.7529 21.0008 21.2507C20.194 19.7484 19.7906 18.0151 19.7906 16.0507C19.7906 14.0631 20.194 12.3182 21.0008 10.816C21.8075 9.31377 22.937 8.15822 24.3891 7.34933C25.8412 6.54044 27.5124 6.13599 29.4025 6.13599C31.2234 6.13599 32.8484 6.52888 34.2775 7.31466C35.7297 8.10044 36.8476 9.22133 37.6313 10.6773C38.438 12.1102 38.8414 13.7627 38.8414 15.6347ZM33.828 14.248C33.805 13 33.3555 12.0062 32.4796 11.2667C31.6037 10.504 30.5319 10.1227 29.2642 10.1227C28.0656 10.1227 27.0514 10.4924 26.2216 11.232C25.4148 11.9484 24.9193 12.9538 24.7349 14.248H33.828ZM48.0102 10.4347V19.7253C48.0102 20.3724 48.1601 20.8462 48.4597 21.1467C48.7824 21.424 49.3126 21.5627 50.0502 21.5627H52.2975V25.6533H49.2549C45.1751 25.6533 43.1352 23.6658 43.1352 19.6907V10.4347H40.8532V6.44799H43.1352V1.69866H48.0102V6.44799H52.2975V10.4347H48.0102Z" fill="white"/>
<path fill-rule="evenodd" clip-rule="evenodd" d="M70.6808 5.37334V1.456H55.779V25.6533H60.6195V15.4267H68.3297V11.5787H60.6195V5.37334H70.6808ZM77.6398 24.752C79.115 25.5609 80.7746 25.9653 82.6186 25.9653C84.4856 25.9653 86.1683 25.5609 87.6665 24.752C89.1878 23.92 90.3864 22.7529 91.2623 21.2507C92.1613 19.7484 92.6107 18.0151 92.6107 16.0507C92.6107 14.1144 92.1853 12.4027 91.3343 10.9155C90.9439 11.2481 90.4331 11.4496 89.874 11.4496C88.6474 11.4496 87.6531 10.4796 87.6531 9.28294C87.6531 9.23618 87.6546 9.18977 87.6576 9.14375C87.4136 9.2337 87.149 9.28292 86.8727 9.28292C85.6462 9.28292 84.6518 8.31287 84.6518 7.11625C84.6518 6.83525 84.7066 6.56674 84.8064 6.32035C84.1488 6.19745 83.4656 6.136 82.7569 6.136C80.9129 6.136 79.2418 6.552 77.7435 7.384C76.2453 8.19289 75.0582 9.34845 74.1823 10.8507C73.3295 12.3529 72.903 14.0862 72.903 16.0507C72.903 18.0151 73.3179 19.7484 74.1477 21.2507C75.0006 22.7529 76.1646 23.92 77.6398 24.752ZM85.0734 21.112C84.3128 21.528 83.4945 21.736 82.6186 21.736C81.2356 21.736 80.0831 21.2507 79.1611 20.28C78.2622 19.2862 77.8127 17.8764 77.8127 16.0507C77.8127 14.2249 78.2737 12.8267 79.1957 11.856C80.1407 10.8622 81.3047 10.3653 82.6877 10.3653C84.0707 10.3653 85.2348 10.8622 86.1798 11.856C87.1479 12.8267 87.632 14.2249 87.632 16.0507C87.632 17.2756 87.4015 18.3156 86.9405 19.1707C86.4795 20.0258 85.8571 20.6729 85.0734 21.112ZM99.688 24.752C101.163 25.5609 102.823 25.9653 104.667 25.9653C106.534 25.9653 108.217 25.5609 109.715 24.752C111.236 23.92 112.435 22.7529 113.311 21.2507C114.209 19.7484 114.659 18.0151 114.659 16.0507C114.659 14.0862 114.221 12.3529 113.345 10.8507C112.492 9.34845 111.317 8.19289 109.818 7.384C108.32 6.552 106.649 6.136 104.805 6.136C102.961 6.136 101.29 6.552 99.7918 7.384C98.2935 8.19289 97.1064 9.34845 96.2305 10.8507C95.3777 12.3529 94.9513 14.0862 94.9513 16.0507C94.9513 18.0151 95.3662 19.7484 96.196 21.2507C97.0488 22.7529 98.2128 23.92 99.688 24.752ZM107.122 21.112C106.361 21.528 105.543 21.736 104.667 21.736C103.284 21.736 102.131 21.2507 101.209 20.28C100.31 19.2862 99.8609 17.8764 99.8609 16.0507C99.8609 14.2249 100.322 12.8267 101.244 11.856C102.189 10.8622 103.353 10.3653 104.736 10.3653C106.119 10.3653 107.283 10.8622 108.228 11.856C109.196 12.8267 109.68 14.2249 109.68 16.0507C109.68 17.2756 109.45 18.3156 108.989 19.1707C108.528 20.0258 107.905 20.6729 107.122 21.112ZM118.105 10.816C117.345 12.3182 116.965 14.04 116.965 15.9813C116.965 17.9458 117.345 19.6907 118.105 21.216C118.889 22.7182 119.949 23.8853 121.287 24.7173C122.624 25.5493 124.098 25.9653 125.712 25.9653C127.142 25.9653 128.397 25.6764 129.482 25.0987C130.564 24.5209 131.406 23.7582 132.005 22.8107V25.6533H136.915V0H132.005V9.11733C131.336 8.216 130.437 7.49956 129.309 6.968C128.179 6.41334 126.992 6.136 125.747 6.136C124.11 6.136 122.624 6.54045 121.287 7.34934C119.949 8.15823 118.889 9.31378 118.105 10.816ZM131.348 13.0347C131.809 13.8667 132.04 14.872 132.04 16.0507C132.04 17.2293 131.809 18.2462 131.348 19.1013C130.887 19.9333 130.264 20.5805 129.482 21.0427C128.698 21.4818 127.856 21.7013 126.957 21.7013C126.082 21.7013 125.251 21.4702 124.468 21.008C123.707 20.5458 123.085 19.8871 122.6 19.032C122.139 18.1538 121.909 17.1369 121.909 15.9813C121.909 14.8258 122.139 13.832 122.6 13C123.085 12.1449 123.707 11.4978 124.468 11.0587C125.228 10.6196 126.058 10.4 126.957 10.4C127.856 10.4 128.698 10.6311 129.482 11.0933C130.264 11.5324 130.887 12.1796 131.348 13.0347Z" fill="#FF9A03"/>
</svg>
