<svg width="105" height="133" viewBox="0 0 105 133" fill="none" xmlns="http://www.w3.org/2000/svg">
<path fill-rule="evenodd" clip-rule="evenodd" d="M59.4045 0.426241C56.0054 1.16771 51.6574 4.31283 49.6033 7.51603C48.8312 8.72041 48.2186 9.19467 47.0536 9.4904C44.847 10.0502 40.3606 13.0471 38.2307 15.3835C34.1191 19.8939 32.3753 23.739 32.1363 28.8219C31.8306 35.3214 34.0052 41.0257 38.0578 44.3545C39.9003 45.8683 40.6331 46.2268 43.1271 46.8348C48.0049 48.0237 51.681 46.7617 55.4923 42.5893C58.5807 39.2083 60.1603 35.9622 61.7072 29.8143C63.6458 22.1122 63.4055 16.9746 60.9258 13.1012L59.7247 11.2256L60.8107 8.39384C62.2696 4.58974 62.6568 0.411195 61.5745 0.151935C61.3352 0.094431 60.3589 0.217802 59.4045 0.426241ZM79.5331 8.71354C79.2367 9.23967 78.5333 11.4004 77.9702 13.5147L76.9466 17.359L75.6679 17.5579C72.7362 18.0138 69.2828 21.0784 66.9043 25.3343C65.0299 28.6882 62.935 36.2136 62.9131 39.6728C62.8479 49.9011 67.9197 56.7452 76.0416 57.3901C86.1992 58.1967 95.1841 49.4652 94.974 38.9925C94.8636 33.5222 92.0442 26.563 88.4628 22.924C87.6823 22.1304 87.0891 21.2984 87.1445 21.0751C87.5807 19.3171 84.5717 11.7976 82.4408 9.31892C81.038 7.6872 80.209 7.51489 79.5331 8.71354ZM16.729 30.8166C16.0162 31.0412 15.0614 31.4775 14.6065 31.7854C13.3015 32.669 10.8567 35.8842 9.77146 38.1432C9.20305 39.3266 8.06587 40.8427 7.11033 41.6917C-1.18436 49.0605 -2.25615 63.7444 4.87333 72.3436C8.1731 76.3236 13.3819 78.7267 17.0623 77.9671C19.201 77.5257 19.7075 77.2712 22.1334 75.4192C23.216 74.5929 25.7505 72.8745 27.7657 71.6006C29.9747 70.2037 31.7749 68.7541 32.2992 67.9489C33.6724 65.84 34.2632 62.8079 33.7269 60.6238C32.9951 57.6465 29.1674 48.1469 27.5317 45.2487C25.8166 42.2102 22.747 39.417 20.5401 38.8868C19.4949 38.6357 19.1001 38.3528 19.0882 37.8466C19.0794 37.464 19.0562 35.9524 19.0369 34.4868C19.0179 33.0216 18.782 31.5043 18.5134 31.115C18.0783 30.4854 17.882 30.4525 16.729 30.8166ZM100.047 61.2492C99.1737 61.9632 97.8368 63.3277 97.076 64.282C95.7473 65.948 95.6552 65.9918 94.7601 65.3872C94.2473 65.0408 92.5195 64.44 90.9199 64.0521C84.8527 62.5805 80.2533 64.4093 72.3993 71.4158C65.4716 77.5963 64.4919 80.7724 67.7346 86.5366C68.384 87.6906 69.5425 90.119 70.3097 91.933C73.3536 99.1318 76.4606 101.83 82.2763 102.325C85.5749 102.605 87.7631 102.145 90.3057 100.635C95.8676 97.3319 101.77 85.7827 101.659 78.4191C101.633 76.7244 101.79 75.9296 102.288 75.2279C104.321 72.3624 105.191 68.1439 104.45 64.7499C104.015 62.759 102.713 60.2109 102.049 60.0513C101.821 59.9964 100.92 60.5353 100.047 61.2492ZM41.5445 71.7407C37.8283 72.0093 35.006 74.0691 31.0686 79.3866C29.756 81.1592 28.1742 83.1793 27.5533 83.8756C25.8956 85.7347 21.6036 88.0427 15.9521 90.1141C7.26451 93.2983 4.39153 95.6544 2.72864 100.959C0.250854 108.864 4.37733 118.54 12.153 123.058C15.3623 124.922 19.4247 125.662 26.2054 125.616C32.4464 125.574 34.6451 126.105 40.3286 129.025C44.3817 131.107 45.2573 131.422 49.0775 132.17C52.1494 132.772 53.9563 132.921 55.6145 132.709C62.5353 131.826 67.9752 126.855 69.8089 119.739C70.9906 115.153 70.3308 113.036 64.8743 103.908C62.4283 99.8156 60.1608 95.5934 59.8355 94.5256C59.5104 93.4574 59.186 90.911 59.1149 88.8664C58.8838 82.217 57.3537 78.3154 53.8499 75.4424C52.1619 74.059 51.4977 73.773 47.6072 72.7557C44.7496 72.0082 42.6659 71.6593 41.5445 71.7407Z" fill="#432A2A" fill-opacity="0.04"/>
</svg>
